<svg width="20" height="20" viewBox="0 0 20 20" fill="none" xmlns="http://www.w3.org/2000/svg">
<g id="shield (6) 1" clip-path="url(#clip0_1049_11800)">
<g id="Layer_2_00000178899069284240608850000003835845492843041966_">
<g id="_02.sheald_check">
<path id="Vector" d="M19.0584 4.48047C18.9646 4.01172 18.5467 3.68359 18.0701 3.69531C14.0193 3.82812 10.7498 0.347656 10.7185 0.316406C10.5349 0.117188 10.2732 0.00390625 9.99979 0.00390625C9.72635 0.00390625 9.46854 0.117188 9.28494 0.316406C9.24979 0.347656 5.97635 3.82812 1.92948 3.69922C1.45291 3.68359 1.03494 4.01562 0.941195 4.48438C0.921664 4.58594 0.45682 6.98438 1.29666 10.082C1.78885 11.9023 2.63651 13.6055 3.78495 15.1016C5.22245 16.9805 7.15604 18.5898 9.53104 19.8867C9.82401 20.0469 10.1756 20.0469 10.4646 19.8867C12.8435 18.5898 14.7771 16.9805 16.2146 15.1016C17.3631 13.6055 18.2068 11.9023 18.7029 10.082C19.5428 6.98047 19.0779 4.58203 19.0584 4.48047ZM14.2029 8.17578L9.33573 13.0469C8.95291 13.4258 8.33573 13.4258 7.95682 13.0469L5.80057 10.8906C5.40604 10.5234 5.3826 9.90625 5.74979 9.51172C6.11698 9.11719 6.73416 9.09375 7.1287 9.46094C7.14823 9.47656 7.16385 9.49609 7.17948 9.51172L8.64823 10.9805L12.8279 6.80078C13.2185 6.42969 13.8396 6.44922 14.2068 6.83984C14.5584 7.21484 14.5584 7.80078 14.2029 8.17578Z" fill="#19C47C"/>
</g>
</g>
</g>
<defs>
<clipPath id="clip0_1049_11800">
<rect width="20" height="20" fill="white"/>
</clipPath>
</defs>
</svg>
